<svg width="1601" height="154" viewBox="0 0 1601 154" fill="none" preserveAspectRatio='none' xmlns="http://www.w3.org/2000/svg">
<mask id="mask0" mask-type="alpha" maskUnits="userSpaceOnUse" x="0" y="0" width="1601" height="154">
<path d="M1601 154H0V128.5L5 127.5L28.5 124L51 121C56.6 120.2 73 119 80.5 118.5L96.5 117.5L99.5 116.5C115.9 111.3 167.333 98.6667 191 93C207.5 88.5 253.5 81.5 282.5 78.5C311.5 75.5 335 76 344.5 76C352.1 76 364.667 76.6667 370 77C379.5 77.5 390.5 78.5 396 79C400.4 79.4 411.167 80.8333 416 81.5C420 81.9 431 83.6667 436 84.5C437.2 84.5 454.5 87.8333 463 89.5L484 94L505 99L523.5 103.5L541 108L561 113C565.8 114.2 575 116.5 579.5 117.5L596 121.5C599 122 625 128 635 129.5C643.068 130.71 655.667 133.167 661 134L678 136.5L691 138C692.2 138.4 713.5 140.167 724 141L726 140.5L734 139L744 137C751.2 135.8 774.667 130.167 785.5 127.5L843.5 112.5L904.5 93.5L942 81C957.667 76.1667 993.8 64.9 1013 58.5C1032.2 52.1 1066.67 42.8333 1081.5 39C1100.5 34.3333 1144.2 23.9 1167 19.5C1189.8 15.1 1227.17 9.66667 1243 7.5C1257.17 5.66667 1293.2 1.80002 1324 1.00002C1354.8 0.200019 1395.5 2.00002 1412 3.00002C1427.5 4.16669 1467.8 7.00002 1505 9.00002C1542.2 11 1573.5 8.16669 1584.5 6.50002L1601 4.50002V154Z" fill="#C4C4C4"/>
</mask>
<g mask="url(#mask0)">
<mask id="mask1" mask-type="alpha" maskUnits="userSpaceOnUse" x="0" y="-119" width="1601" height="707">
<rect y="-119" width="1601" height="707" fill="#C4C4C4"/>
</mask>
<g mask="url(#mask1)">
<path d="M16.5695 125.762C-185.579 157.625 -439.391 225.811 -439.391 225.811L-378.136 976.852C-378.136 976.852 -185.053 1067.11 -23.3857 1060.46C244.245 1049.47 430.344 889.63 698.084 873.258C995.407 855.077 1141.76 944.398 1439.09 926.702C1617.94 916.057 1892.24 864.436 1892.24 864.436L1810.48 -67.9999C1810.48 -67.9999 1727.19 -26.1166 1664.51 -8.64456C1521.96 31.0904 1424.45 -10.9055 1271.16 4.45771C995.021 32.1331 870.322 138.256 593.419 157.798C363.496 174.024 242.792 90.1053 16.5695 125.762Z" fill="#194484" fill-opacity="0.07"/>
<path d="M291.359 77.7025C124.295 90.2433 -92 186.069 -92 186.069L-92.0001 742.729C-92.0001 742.729 59.54 829.189 191.895 834.527C411.001 843.364 573.486 725.371 793.038 729.828C1036.85 734.778 1150.32 817.369 1394.11 822.714C1540.75 825.93 1768 802.073 1768 802.073L1768 -21C1768 -21 1697.25 67.6213 1644.95 77.7025C1525.99 100.629 1449.21 59.888 1323.11 62.2215C1095.96 66.425 987.149 144.688 759.908 142.207C571.222 140.146 478.319 63.6682 291.359 77.7025Z" fill="#194484"/>
</g>
</g>
</svg>
