<svg width="1600" height="176" viewBox="0 0 1600 176" fill="none" xmlns="http://www.w3.org/2000/svg">
<mask id="mask0" style="mask-type:alpha" maskUnits="userSpaceOnUse" x="0" y="0" width="1600" height="176">
<path d="M1600 0V176L1545.5 169L1456 157L1290 137C1262 131.5 1089.5 116 1025 109C960.5 102 854 93.5 778.5 88C703 82.5 617.5 79.5 536.5 79.5C471.7 79.5 400.5 84.8333 373 87.5C352.2 88.7 314.333 93 298 95L226.5 104C211.333 106.333 178.2 111.4 167 113C155.8 114.6 146.667 116.333 143.5 117L113 124.5C101 127 53.5 139.5 51 140C49 140.4 16.1667 149.281 0 153.672V0H1600Z" fill="#C4C4C4"/>
</mask>
<g mask="url(#mask0)">
<mask id="mask1" style="mask-type:alpha" maskUnits="userSpaceOnUse" x="0" y="-433" width="1600" height="635">
<rect y="-433" width="1600" height="635" fill="#C4C4C4"/>
</mask>
<g mask="url(#mask1)">
<path d="M247.314 -361.025C80.7575 -381.12 -167.022 -459 -167.022 -459L-194 182.365C-194 182.365 239.231 79.5046 525.977 79.6542C741.808 79.7668 880.307 95.2802 1095.08 115.874C1343.61 139.705 1712.45 191.377 1712.45 191.377L1731.8 -268.611C1731.8 -268.611 1323.56 -363.363 1047.26 -386.575C732.382 -413.028 560.614 -323.226 247.314 -361.025Z" fill="#276ED8" fill-opacity="0.1"/>
<path d="M350 -318.274C209.184 -329.28 -1.99976 -386 -1.99976 -386V154.231C-1.99976 154.231 358.788 52.4207 600 42.4048C781.558 34.8659 898.61 43.0114 1080 52.7312C1289.9 63.9787 1602 94.3803 1602 94.3803V-293.074C1602 -293.074 1255.24 -358.305 1022 -368.05C756.192 -379.156 614.881 -297.573 350 -318.274Z" fill="#276ED8"/>
</g>
</g>
</svg>
