<svg width="1600" height="142" viewBox="0 0 1600 142" fill="none" xmlns="http://www.w3.org/2000/svg">
<mask id="mask0" style="mask-type:alpha" maskUnits="userSpaceOnUse" x="0" y="0" width="1600" height="142">
<path d="M1600 0V142C1574 138.5 1514.6 130.6 1485 127C1455.4 123.4 1427 119.833 1416.5 118.5C1396.9 115.7 1370.67 112.667 1360 111.5C1344.5 109.667 1308 105.3 1286 102.5C1258.5 99 1206 93.5 1178.5 90.5C1156.5 88.1 1108.33 83.1667 1087 81C1051.33 77.5 972.3 69.8 941.5 67C910.7 64.2 869.667 60.8333 853 59.5C837.667 58.1667 799.7 55.1 770.5 53.5C741.3 51.9 723.333 50.8333 718 50.5L670.5 48L623.5 47C613.333 46.5 583.6 45.5 546 45.5C499 45.5 481.5 47 447 48C412.5 49 385.5 52.5 360.5 54.5C335.5 56.5 309 60 273 64C244.2 67.2 225.667 70 220 71C207.667 72.8333 179.8 77 167 79C151 81.5 146 83 126.5 87C107 91 91 96 74 100C60.4 103.2 37.6667 109.333 28 112L0 119.5V0H1600Z" fill="#C4C4C4"/>
</mask>
<g mask="url(#mask0)">
<mask id="mask1" style="mask-type:alpha" maskUnits="userSpaceOnUse" x="0" y="-467" width="1600" height="635">
<rect y="-467" width="1600" height="635" fill="#C4C4C4"/>
</mask>
<g mask="url(#mask1)">
<path d="M247.314 -395.025C80.7575 -415.12 -167.022 -493 -167.022 -493L-194 148.365C-194 148.365 239.231 45.5046 525.977 45.6542C741.808 45.7668 880.307 61.2802 1095.08 81.874C1343.61 105.705 1712.45 157.377 1712.45 157.377L1731.8 -302.611C1731.8 -302.611 1323.56 -397.363 1047.26 -420.575C732.382 -447.028 560.614 -357.226 247.314 -395.025Z" fill="#276ED8" fill-opacity="0.1"/>
<path d="M350 -352.274C209.184 -363.28 -1.99976 -420 -1.99976 -420V120.231C-1.99976 120.231 358.788 18.4207 600 8.40479C781.558 0.865906 898.61 9.01144 1080 18.7312C1289.9 29.9787 1602 60.3803 1602 60.3803V-327.074C1602 -327.074 1255.24 -392.305 1022 -402.05C756.192 -413.156 614.881 -331.573 350 -352.274Z" fill="#276ED8"/>
</g>
</g>
</svg>
