<svg width="1600" height="150" viewBox="0 0 1600 150" fill="none" preserveAspectRatio='none' xmlns="http://www.w3.org/2000/svg">
<mask id="mask0" mask-type="alpha" maskUnits="userSpaceOnUse" x="-1" y="0" width="1602" height="150">
<path d="M0 149H1600L1533.5 123L1449 93C1426.83 86 1371.8 68.7 1329 55.5C1286.2 42.3 1217.83 28 1189 22.5C1113 1.7 1002.33 2.16667 956.5 5C909.7 5 843.333 13 816 17L677 38C666.6 41.6 551.333 56.5 495 63.5C473.167 65.5 420.9 69.6 386.5 70C352.1 70.4 298.5 67.1667 276 65.5C255.2 64.3 209 55.6667 188.5 51.5L107 33C101.4 32.6 33.3333 11.6517 0 1.22748V149Z" fill="#C4C4C4" stroke="white"/>
</mask>
<g mask="url(#mask0)">
<mask id="mask1" mask-type="alpha" maskUnits="userSpaceOnUse" x="0" y="-13" width="1600" height="1113">
<rect y="-13" width="1600" height="1113" fill="#C4C4C4"/>
</mask>
<g mask="url(#mask1)">
<path d="M200 54C30.652 21.0186 -128 -45 -128 -45V1117.5C-128 1117.5 305.89 1008.89 595.976 978.872C814.321 956.279 955.09 980.69 1173.23 1009.82C1425.66 1043.53 1801 1134.64 1801 1134.64V233.487C1801 233.487 1383.98 37.9973 1103.48 8.793C783.816 -24.4889 518.55 116.039 200 54Z" fill="#276ED8"/>
</g>
</g>
</svg>
