<svg width="1600" height="125" viewBox="0 0 1600 125" fill="none" preserveAspectRatio='none' xmlns="http://www.w3.org/2000/svg">
<mask id="mask0" mask-type="alpha" maskUnits="userSpaceOnUse" x="-1" y="0" width="1601" height="125">
<path d="M0 124H1599.5V116.5L1575 111L1452 87L1388 75.5L1296 59.5L1178 41.5C1156.17 39 1104.9 33.1 1074.5 29.5C1044.1 25.9 1004.5 24 988.5 23.5C975.667 22.8333 941.4 21.7 907 22.5C872.6 23.3 806.333 27.5 777.5 29.5C754 32 706.7 37.1 705.5 37.5C704.3 37.9 629 46.3333 591.5 50.5C567.5 54.1 502.167 58.3333 472.5 60C459.7 62.8 380.5 61.8333 342.5 61C271.7 59.8 197.667 46.5 169.5 40C153.9 40 50 14.3333 0 1.5V124Z" fill="#C4C4C4" stroke="white"/>
</mask>
<g mask="url(#mask0)">
<mask id="mask1" mask-type="alpha" maskUnits="userSpaceOnUse" x="0" y="-19" width="1600" height="635">
<rect y="-19" width="1600" height="635" fill="#C4C4C4"/>
</mask>
<g mask="url(#mask1)">
<path d="M247.314 52.9751C80.7576 32.8805 -167.022 -45 -167.022 -45L-194 596.365C-194 596.365 239.231 493.505 525.978 493.654C741.808 493.767 880.307 509.28 1095.08 529.874C1343.61 553.705 1712.45 605.377 1712.45 605.377L1731.8 145.389C1731.8 145.389 1323.56 50.6371 1047.26 27.4251C732.383 0.972151 560.614 90.774 247.314 52.9751Z" fill="#276ED8" fill-opacity="0.1"/>
<path d="M350 95.7258C209.184 84.7204 -1.99982 28 -1.99982 28V568.231C-1.99982 568.231 358.788 466.421 600 456.405C781.558 448.866 898.61 457.011 1080 466.731C1289.9 477.979 1602 508.38 1602 508.38V120.926C1602 120.926 1255.24 55.6947 1022 45.9498C756.192 34.8442 614.881 116.427 350 95.7258Z" fill="#276ED8"/>
</g>
</g>
</svg>
